<?xml version="1.0" encoding="UTF-8" standalone="no"?>
<!DOCTYPE svg PUBLIC "-//W3C//DTD SVG 1.1//EN" "http://www.w3.org/Graphics/SVG/1.1/DTD/svg11.dtd">
<svg width="100%" height="100%" viewBox="0 0 50 50" version="1.1" xmlns="http://www.w3.org/2000/svg" xmlns:xlink="http://www.w3.org/1999/xlink" xml:space="preserve" style="fill-rule:evenodd;clip-rule:evenodd;stroke-miterlimit:1.41421;">
    <circle cx="25" cy="25" r="21" style="fill:rgb(255,107,98);stroke-width:2px;stroke:black;"/>
    <g transform="matrix(1,0,0,1,0.720495,0.0442708)">
        <path d="M32.557,31.407L16.002,31.407L16.002,32.878L32.557,32.878L32.557,31.407Z" style="fill:black;"/>
    </g>
    <g transform="matrix(0.329546,0.131805,-0.497466,1.24379,25.7108,-30.0373)">
        <path d="M32.557,31.407L16.002,31.407L16.002,32.878L32.557,32.878L32.557,31.407Z" style="fill:black;"/>
    </g>
    <g transform="matrix(1,0,0,1,2.48297,2)">
        <circle cx="16.2" cy="16.828" r="2.681" style="fill:black;"/>
    </g>
    <g transform="matrix(-0.329546,0.131805,0.497466,1.24379,24.1954,-30.0373)">
        <path d="M32.557,31.407L16.002,31.407L16.002,32.878L32.557,32.878L32.557,31.407Z" style="fill:black;"/>
    </g>
    <g transform="matrix(-1,0,0,1,47.4233,2)">
        <circle cx="16.2" cy="16.828" r="2.681" style="fill:black;"/>
    </g>
</svg>
